<svg id="Layer_1" data-name="Layer 1" xmlns="http://www.w3.org/2000/svg" viewBox="0 0 1048.75 210.68"><defs><style>.cls-1{fill:#fff;}</style></defs><title>amina_logo_white</title><path id="_Path_" data-name="&lt;Path&gt;" class="cls-1" d="M234.53,385.06c-7.38-3.34-16.17-2.12-24.17-.28a97.28,97.28,0,0,0-12.64,3.87,237.23,237.23,0,0,0-36.18,17c-10.21,6-20.46,12.38-28.7,21-12.42,13-27.44,34-17.74,52.64,6.47,12.49,19.27,15.34,32.17,13.48a80.88,80.88,0,0,0,10.07-2.2c21.56-6,40.94-19.28,60-30.59,3.44-2,6.86-4.06,10.24-6.17,6-3.7,12.08-7.32,18.27-10.73,6.69-3.68,13.7-7.91,21.58-7.86,12.18.09,18.43,12.54,25.39,20.55,2.28,2.62,4.86,4.7,8.34,5.42,5.8,1.21,12.44-3.45,15.1-8.2,2.18-3.91.94-10-1.53-13.4s-5.91-5.88-9.15-8.35a72.59,72.59,0,0,0-24.53-12.18,41.05,41.05,0,0,0-14.94-1.48c-18.83,2-47.79,21-60,29.31-15.82,10.78-33.13,21.59-51.3,27.86-5.83,2-13.06,2.94-18.53-.78-13-8.85-2.86-22.88,4.15-31.87a65.43,65.43,0,0,1,14.53-13.47c12-8.24,26.63-15.12,41.07-17.66,6.54-1.15,13.18-.75,19.77-.43,5.59.25,11.1,1.06,16.68.1,4-.68,9.12-1.57,11.47-5.21,3.28-5.1.2-12.94-3.9-16.76a20.67,20.67,0,0,0-5.47-3.64Z" transform="translate(-112 -290.66)"/><path id="_Path_2" data-name="&lt;Path&gt;" class="cls-1" d="M347.17,429.25s-21.07,11.59-21.33,20.93c0,0-2,8,5.33,12s16.79-2.41,17.2-2.66,34.78-27.88,42.37-35.06a273.13,273.13,0,0,1,21.71-18.61c6.11-4.66,18.14-15.78,26.62-13.76,7,1.67,10.85,13.26,13.64,19,4.25,8.77,9.41,21.47,19.53,24.8,10.94,3.6,20.33-10.44,28.2-15.72,5.18-3.46,12.36-9.11,18.89-6,7.16,3.41,11.07,11.49,16,17.31,10.12,12,23.32,26.88,40,27.85,7,.4,17.89-1.46,23.89-4.72a85.59,85.59,0,0,0,15.12-10.3c2.84-2.3,4.81-5,5.23-8.81.32-3-.15-9-4.4-8.84,0,0-3.21-1.46-11.46,10.55-8,11.59-28.7,12.89-40,5.62-6.82-4.4-10-12.05-13.32-19.13-5.85-12.65-17.58-30.35-32.77-32.25-9.86-1.24-20.23,9.11-26.07,15.81-4.49,5.16-9.77,12.61-16.52,14.88-3.05,1-5.58.22-7.13-2.73-2.52-4.78-3.22-10.72-5-15.88s-3.47-10.17-5.57-15.11c-2.22-5.28-4.55-10.52-10-13.23-5.58-2.78-14.28-3.1-19.83,0-7.54,4.24-14.2,10.71-20.69,16.41-7.59,6.66-27.7,21.72-59.71,37.58Z" transform="translate(-112 -290.66)"/><path id="_Path_3" data-name="&lt;Path&gt;" class="cls-1" d="M626.7,381.87s-3.21,68.78,10.83,72.16,17.79-5.32,17.42-8.7.7-16.54-22.93-64.69c-4-3.37-5.33,1.23-5.33,1.23Z" transform="translate(-112 -290.66)"/><path id="_Path_4" data-name="&lt;Path&gt;" class="cls-1" d="M670.22,405.39s-1.71-9.6,6-11.24c8-1.69,10.49-1.42,13.7,4.43s10.83,16.36,15.63,35.91c6.39-1.07,20.43-6.76,34.65-16.89s31.45-19.9,48.34-19.19,27,2.31,35,6.4,24,12.26,34.65,29.13,12.08,27,11.88,29.68-1,6.57-6.73,1.07-17.77-20.44-21.14-24.88-16.37-19.55-24.17-21-19.54-3-49.4,8.72-47.27,27.53-47.27,27.53-14.93,13.32-26.65,9.78c-7.65-7.46-19.87-28.85-24.54-59.49Z" transform="translate(-112 -290.66)"/><g id="_Group_" data-name="&lt;Group&gt;"><path id="_Path_5" data-name="&lt;Path&gt;" class="cls-1" d="M977.56,401.94c-4.4-1.3-9.32-.09-13.68.9-14.17,3.24-27.39,10-39.29,18.23-15.07,10.42-33.29,23.1-39.51,41.31a33,33,0,0,0-1.46,15.25c4.32,27.22,31.76,26.66,52.5,19.63,22.52-7.64,42.63-21.46,62.88-33.61l10.7-6.4c6.26-3.77,12.65-7.32,19.12-10.73,8-4.28,16.44-8.66,25.73-5.64,5.81,1.88,8.78,8,12.24,12.56,8.1,10.7,19.67,18.24,31.55,8.06,3.72-3.19,7-10.92.25-17.47s-26.78-18.78-38.79-20.92-23-2-37.86,5.35S975,457.51,975,457.51c-6.37,4.26-13,8.23-19.62,12-10.26,5.83-22,12.8-34,14.24-6.05.74-14.07-1.72-17-7.77-2.16-4.54.15-12.75,2.53-16.76a38.85,38.85,0,0,1,10.48-10.86C925.92,442.13,936.07,439,946,436c5.31-1.6,10.67-3.11,15.89-5,7.08-2.52,15.76-6.46,19.7-13.27,4.82-8.24,1.07-14.38-4-15.84Z" transform="translate(-112 -290.66)"/><path id="_Path_6" data-name="&lt;Path&gt;" class="cls-1" d="M1139.11,456.7s-26.14,1.87-30.41,8.53,2.94,18.64,11.47,20.78,31.71-2.66,38.64-12-5.86-18.13-19.71-17.34Z" transform="translate(-112 -290.66)"/></g><path id="_Path_7" data-name="&lt;Path&gt;" class="cls-1" d="M621.26,315c-9.18.21-17.54-2.15-17.54-9.66,0-4.67,3.75-9.32,7.58-12.84l-1.53-1.68A28.15,28.15,0,0,0,597,292.66c-12.31,4.81-19.17,16.74-15.3,26.65s17,14.06,29.34,9.24a27.09,27.09,0,0,0,13.07-10.47L621.26,315Z" transform="translate(-112 -290.66)"/></svg>